<svg width="839" height="503" viewBox="0 0 839 503" fill="none" xmlns="http://www.w3.org/2000/svg">
<g id="Soccer">
<g id="Background">
<path id="BGElement" d="M856.85 439.43C854.181 391.018 815.284 351.547 766.912 348.239C744.614 346.672 722.46 352.86 704.202 365.756C685.944 378.651 672.704 397.461 666.726 418.999C665.552 418.957 664.379 418.91 663.195 418.91C642.259 418.914 621.887 425.696 605.127 438.242C588.368 450.788 576.12 468.424 570.218 488.51C556.345 482.415 540.843 481.092 526.138 484.75C511.433 488.407 498.357 496.839 488.956 508.723H791.229C828.365 508.723 858.433 477.964 856.919 440.859C856.9 440.383 856.877 439.907 856.85 439.43Z" fill="#193CB8"/>
</g>
<g id="RightHand">
<path id="Vector" d="M287.237 169.82C287.237 169.82 248.702 157.817 254.617 177.565C260.533 197.314 292.99 187.338 292.99 187.338L287.237 169.82Z" fill="#FFB8B8"/>
<path id="Vector_2" d="M434.539 95.6949C434.539 95.6949 414.791 68.7083 395.604 96.7238C376.38 124.795 358.506 147.839 358.506 147.839L310.76 163.407L283.138 165.857L290.747 190.415L371.061 178.764C371.061 178.764 460.475 125.65 434.539 95.6949Z" fill="#2F2E41"/>
</g>
<g id="Body">
<path id="Vector_3" d="M343.096 255.565C343.096 255.565 313.096 276.565 315.096 295.565C317.096 314.565 330.096 366.565 330.096 366.565L357.096 362.565C357.096 362.565 360.096 322.565 350.096 307.565L398.096 280.565L343.096 255.565Z" fill="#FFB8B8"/>
<path id="Vector_4" d="M409.596 305.065C409.596 305.065 407.596 342.065 412.596 357.065C417.596 372.065 422.596 428.065 422.596 428.065H450.596C450.596 428.065 463.596 379.065 447.596 357.065C447.596 357.065 442.596 328.065 456.596 314.065L409.596 305.065Z" fill="#FFB8B8"/>
<path id="Vector_5" d="M403.096 202.565C403.096 202.565 338.096 243.565 338.096 256.565L390.096 299.565L408.096 279.565L406.096 309.565L462.096 320.565C462.096 320.565 482.096 244.565 481.096 241.565C480.096 238.565 477.096 194.565 477.096 194.565L403.096 202.565Z" fill="#2F2E41"/>
<path id="Vector_6" d="M357.096 357.565L328.096 363.565L333.248 384.748C335.784 395.173 336.073 406.019 334.096 416.565V416.565C334.096 416.565 364.096 424.565 364.096 420.565C364.096 416.565 357.096 400.565 359.096 389.565C361.096 378.565 357.096 357.565 357.096 357.565Z" fill="#6C63FF"/>
<path id="Vector_7" d="M452.596 423.565L420.916 421.565C420.916 421.565 422.836 454.565 418.996 465.565C415.156 476.565 417.076 480.565 417.076 480.565L444.916 482.565L452.596 423.565Z" fill="#6C63FF"/>
<path id="Vector_8" d="M452.986 496.5C452.842 492.379 448.497 472.91 447.519 475.838C446.541 478.766 429.851 480.32 425.233 473.201C425.233 473.201 418.869 464.687 414.475 470.908C410.082 477.128 401.711 487.614 401.711 487.614C401.711 487.614 372.594 494.698 375.047 502.378C375.543 503.932 377.611 504.983 380.592 505.672C380.484 505.838 380.406 506.023 380.363 506.217L380.216 506.91C380.125 507.337 380.207 507.782 380.444 508.148C380.682 508.515 381.055 508.772 381.482 508.863L382.175 509.01C382.602 509.101 383.047 509.019 383.413 508.782C383.78 508.544 384.037 508.171 384.128 507.744L384.275 507.051C384.327 506.801 384.319 506.542 384.252 506.296C385.067 506.396 385.917 506.481 386.794 506.55C386.508 506.784 386.31 507.107 386.231 507.468L386.084 508.161C385.993 508.588 386.075 509.033 386.312 509.4C386.55 509.766 386.923 510.023 387.35 510.114L388.043 510.261C388.47 510.352 388.915 510.27 389.282 510.033C389.648 509.795 389.905 509.422 389.996 508.995L390.143 508.302C390.204 508.015 390.186 507.717 390.092 507.44C389.998 507.162 389.832 506.915 389.61 506.723C391.941 506.827 394.392 506.85 396.841 506.819C396.635 507.035 396.492 507.304 396.429 507.597L396.281 508.29C396.19 508.717 396.272 509.162 396.51 509.529C396.747 509.895 397.12 510.152 397.547 510.243L398.24 510.39C398.667 510.481 399.113 510.399 399.479 510.162C399.845 509.924 400.102 509.551 400.193 509.124L400.341 508.431C400.407 508.12 400.381 507.796 400.267 507.499C400.152 507.202 399.955 506.945 399.697 506.758C401.54 506.705 403.352 506.625 405.081 506.532C404.876 506.749 404.733 507.017 404.67 507.309L404.522 508.002C404.431 508.429 404.513 508.874 404.751 509.241C404.988 509.607 405.361 509.864 405.788 509.955L406.481 510.102C406.908 510.193 407.354 510.111 407.72 509.874C408.086 509.636 408.343 509.263 408.434 508.836L408.582 508.143C408.654 507.8 408.615 507.444 408.47 507.125C408.325 506.807 408.082 506.543 407.776 506.372C413.864 505.979 418.353 505.476 418.353 505.476C418.353 505.476 423.596 504.743 429.998 503.607L429.871 504.204C429.78 504.631 429.862 505.076 430.1 505.442C430.337 505.809 430.71 506.066 431.137 506.157L431.83 506.304C432.257 506.395 432.703 506.313 433.069 506.076C433.435 505.838 433.692 505.465 433.783 505.038L433.931 504.345C433.982 504.101 433.977 503.848 433.916 503.606C433.855 503.364 433.739 503.14 433.577 502.949C434.866 502.704 436.169 502.448 437.46 502.179L437.343 502.729C437.252 503.156 437.334 503.602 437.571 503.968C437.809 504.334 438.182 504.591 438.609 504.682L439.302 504.83C439.729 504.921 440.174 504.838 440.541 504.601C440.907 504.363 441.164 503.99 441.255 503.563L441.402 502.87C441.457 502.611 441.449 502.343 441.378 502.088C441.307 501.833 441.175 501.599 440.994 501.406C442.398 501.083 443.753 500.75 445.011 500.409C444.995 500.46 444.973 500.508 444.962 500.562L444.814 501.255C444.723 501.682 444.806 502.127 445.043 502.493C445.28 502.86 445.654 503.116 446.081 503.207L446.774 503.355C447.201 503.446 447.646 503.364 448.012 503.126C448.378 502.889 448.635 502.516 448.726 502.089L448.874 501.396C448.953 501.025 448.901 500.638 448.728 500.3C448.555 499.963 448.27 499.696 447.922 499.544C450.996 498.539 453.02 497.498 452.986 496.5Z" fill="#2F2E41"/>
<path id="Vector_9" d="M403.096 72.5652C419.112 72.5652 432.096 59.5815 432.096 43.5652C432.096 27.549 419.112 14.5652 403.096 14.5652C387.079 14.5652 374.096 27.549 374.096 43.5652C374.096 59.5815 387.079 72.5652 403.096 72.5652Z" fill="#FFB8B8"/>
<path id="Vector_10" d="M429.096 40.5652C429.096 40.5652 445.096 60.5652 453.096 59.5652L418.096 86.5652C418.096 86.5652 414.096 69.5652 409.096 67.5652C404.096 65.5652 429.096 40.5652 429.096 40.5652Z" fill="#FFB8B8"/>
<path id="Vector_11" d="M491.596 189.065C491.596 189.065 491.593 78.7189 473.083 69.2134C454.583 59.7134 442.345 54.2913 442.345 54.2913C442.073 57.912 441.044 61.4353 439.325 64.6335C437.605 67.8317 435.234 70.6337 432.365 72.8584C426.231 77.5941 420.12 81.5209 416.706 81.5335L416.596 81.0652L416.179 79.8764L406.096 95.5652C406.096 95.5652 397.096 97.5652 394.096 103.565C392.473 106.811 400.126 139.488 395.596 169.065C391.752 194.159 375.555 216.811 375.096 219.565C374.32 224.221 394.006 212.023 402.871 206.321C403.002 206.468 403.096 206.565 403.096 206.565C403.096 206.565 398.096 208.565 408.096 205.565C413.762 203.865 421.673 203.771 427.468 204.008C427.461 205.746 427.502 207.126 427.596 208.065C428.596 218.065 478.596 232.065 485.596 229.065C492.596 226.065 491.596 189.065 491.596 189.065Z" fill="#2F2E41"/>
<path id="Vector_12" d="M421.596 297.065C421.596 297.065 435.596 284.065 443.596 291.065C451.596 298.065 456.596 303.065 456.596 303.065C456.596 303.065 433.596 289.065 421.596 297.065Z" fill="#6C63FF"/>
<path id="Vector_13" d="M425.232 452.614C425.232 452.614 433.123 445.286 437.632 449.232C442.141 453.177 444.959 455.995 444.959 455.995C444.959 455.995 431.996 448.105 425.232 452.614Z" fill="#2F2E41"/>
<path id="Vector_14" d="M336.829 384.459C336.829 384.459 342.246 375.152 347.708 377.615C353.17 380.077 356.686 381.953 356.686 381.953C356.686 381.953 341.987 378.177 336.829 384.459Z" fill="#2F2E41"/>
<path id="Vector_15" opacity="0.2" d="M469.596 156.065L450.596 228.065L466.596 194.065L469.596 156.065Z" fill="black"/>
<path id="Vector_16" d="M421.309 9.76134C421.309 9.76134 405.278 -7.11515 389.143 3.51302C373.008 14.1412 365.354 24.4654 366.936 31.654C368.518 38.8426 373.2 48.8416 373.2 48.8416C373.2 48.8416 370.29 33.9489 383.65 32.8468C397.011 31.7447 415.469 22.9031 415.469 22.9031L427.955 49.567C427.955 49.567 429.72 43.3881 434.614 45.1603C439.508 46.9326 435.714 11.7381 421.309 9.76134Z" fill="#2F2E41"/>
</g>
<g id="Shoe">
<path id="Vector_17" d="M369.979 434.771C369.038 430.441 361.217 410.808 360.891 414.129C360.566 417.45 345.505 422.863 339.857 416.368C339.857 416.368 332.327 408.79 329.503 416.368C326.679 423.946 321.031 436.936 321.031 436.936C321.031 436.936 295.615 451.009 299.381 458.587C300.142 460.12 302.252 460.766 305.133 460.823C305.065 461.024 305.03 461.236 305.028 461.451V462.218C305.028 462.691 305.192 463.144 305.482 463.478C305.773 463.812 306.167 464 306.578 464H307.245C307.655 464 308.049 463.812 308.34 463.478C308.63 463.144 308.794 462.691 308.794 462.218V461.451C308.792 461.175 308.734 460.903 308.624 460.657C309.394 460.58 310.193 460.477 311.014 460.353C310.797 460.665 310.678 461.052 310.676 461.451V462.218C310.676 462.691 310.84 463.144 311.13 463.478C311.421 463.812 311.815 464 312.225 464H312.892C313.303 464 313.697 463.812 313.988 463.478C314.278 463.144 314.442 462.691 314.442 462.218V461.451C314.441 461.134 314.366 460.823 314.225 460.55C314.084 460.277 313.882 460.053 313.64 459.9C315.807 459.484 318.068 458.956 320.317 458.369C320.169 458.645 320.091 458.962 320.089 459.286V460.053C320.089 460.526 320.253 460.979 320.543 461.313C320.834 461.647 321.228 461.835 321.639 461.835H322.306C322.716 461.835 323.11 461.647 323.401 461.313C323.692 460.979 323.855 460.526 323.855 460.053V459.286C323.854 458.942 323.767 458.605 323.604 458.316C323.44 458.028 323.208 457.8 322.934 457.66C324.62 457.188 326.273 456.695 327.846 456.206C327.699 456.481 327.621 456.798 327.62 457.121V457.888C327.62 458.361 327.783 458.814 328.074 459.148C328.364 459.482 328.758 459.67 329.169 459.67H329.836C330.247 459.67 330.641 459.482 330.932 459.148C331.222 458.814 331.385 458.361 331.385 457.888V457.121C331.384 456.742 331.278 456.374 331.082 456.069C330.886 455.765 330.611 455.54 330.296 455.429C335.824 453.638 339.857 452.092 339.857 452.092C339.857 452.092 344.541 450.132 350.212 447.484V448.145C350.212 448.618 350.375 449.071 350.665 449.405C350.956 449.739 351.35 449.927 351.761 449.927H352.428C352.839 449.927 353.233 449.739 353.523 449.405C353.814 449.071 353.977 448.618 353.977 448.145V447.378C353.976 447.108 353.922 446.842 353.818 446.6C353.714 446.357 353.564 446.146 353.378 445.981C354.516 445.43 355.665 444.864 356.801 444.289V444.898C356.801 445.37 356.964 445.823 357.254 446.157C357.545 446.492 357.939 446.679 358.35 446.679H359.017C359.428 446.679 359.822 446.492 360.112 446.157C360.403 445.823 360.566 445.37 360.566 444.898V444.131C360.566 443.844 360.506 443.562 360.39 443.308C360.275 443.054 360.107 442.836 359.903 442.672C361.131 442.013 362.314 441.355 363.405 440.71C363.4 440.768 363.39 440.824 363.39 440.883V441.65C363.39 442.123 363.553 442.576 363.844 442.91C364.134 443.244 364.528 443.432 364.939 443.432H365.606C366.017 443.432 366.411 443.244 366.701 442.91C366.992 442.576 367.155 442.123 367.155 441.65V440.883C367.155 440.472 367.032 440.074 366.806 439.756C366.58 439.438 366.265 439.219 365.916 439.137C368.548 437.38 370.207 435.82 369.979 434.771Z" fill="#2F2E41"/>
</g>
<g id="LeftHand">
<path id="Vector_18" d="M461.875 220C461.875 220 431.875 247 451.875 252C471.875 257 479.875 224 479.875 224L461.875 220Z" fill="#FFB8B8"/>
<path id="Vector_19" d="M486.708 78.4821C476.795 58.5561 446.633 69.4237 451.534 91.1328C451.607 91.4564 451.684 91.7833 451.764 92.1132C456.93 112.663 465.371 132.247 476.764 150.113L465.764 199.113L453.764 224.113L478.764 230.113L509.764 155.113C509.764 155.113 501.213 107.64 486.708 78.4821Z" fill="#2F2E41"/>
</g>
<g id="Soccer Ball">
<path id="Vector_20" d="M317 387.999C316.999 390.758 316.798 393.511 316.398 396.231V396.242C315.301 403.56 312.759 410.498 308.965 416.533C305.17 422.568 300.223 427.542 294.495 431.079C288.767 434.616 282.409 436.624 275.901 436.952C269.392 437.28 262.903 435.919 256.924 432.971H256.915C255.145 432.101 253.431 431.093 251.783 429.955C246.677 426.441 242.266 421.757 238.832 416.2C235.397 410.642 233.013 404.332 231.831 397.669C231.277 394.484 230.999 391.246 231 387.999C231 386.518 231.057 385.048 231.172 383.6V383.589C232.164 371.085 237.329 359.492 245.603 351.202C253.877 342.911 264.628 338.557 275.637 339.036C286.646 339.515 297.074 344.791 304.769 353.777C312.464 362.762 316.839 374.771 316.99 387.324V387.335C317 387.564 317 387.771 317 387.999Z" fill="#6C63FF"/>
<path id="Vector_21" d="M283.25 373H263.75L254 353.842L260.613 340.835L261 340.718C269.372 338.179 278.214 338.46 286.448 341.525L286.799 341.657L293 353.842L283.25 373ZM264.867 370.804H282.133L290.765 353.842L285.493 343.481C277.842 340.728 269.664 340.465 261.887 342.722L256.235 353.842L264.867 370.804Z" fill="white"/>
<path id="Vector_22" d="M282.25 412H262.75L253 393L262.75 374H282.25L292 393L282.25 412ZM263.867 409.823H281.133L289.765 393L281.133 376.177H263.867L255.235 393L263.867 409.823Z" fill="white"/>
<path id="Vector_23" d="M272.738 439C266.635 439.013 260.595 437.604 254.998 434.862L254 434.373L263.923 415H283.495L293 433.547L292.056 434.057C286.031 437.328 279.426 439.018 272.738 439V439ZM256.777 433.33C262.116 435.75 267.834 436.931 273.588 436.803C279.342 436.675 285.014 435.24 290.265 432.584L282.374 417.188H265.045L256.777 433.33Z" fill="white"/>
<path id="Vector_24" d="M315.155 392H295.719L286 373.005L295.718 354H304.569L304.854 354.339C312.529 363.453 316.868 375.505 317 388.079V388.394L315.155 392ZM296.832 389.823H314.042L315.068 387.819C314.881 376.055 310.845 364.784 303.737 356.177H296.832L288.227 373.005L296.832 389.823Z" fill="white"/>
<path id="Vector_25" d="M295.326 432L286 413.275L295.59 394H314.769L316 396.462L315.987 396.956C314.947 403.986 312.645 410.684 309.23 416.616C305.814 422.547 301.363 427.58 296.163 431.387L295.326 432ZM288.198 413.275L295.977 428.894C300.69 425.262 304.721 420.561 307.827 415.074C310.934 409.588 313.051 403.429 314.053 396.969L313.672 396.208H296.689L288.198 413.275Z" fill="white"/>
<path id="Vector_26" d="M250.678 432L249.868 431.425C244.802 427.827 240.427 423.032 237.019 417.343C233.611 411.655 231.244 405.198 230.069 398.379L230 397.976L231.955 394H250.652L260 413.036L250.678 432ZM231.958 398.352C233.085 404.611 235.263 410.544 238.365 415.802C241.467 421.06 245.431 425.538 250.024 428.973L257.857 413.036L249.58 396.181H233.026L231.958 398.352Z" fill="white"/>
<path id="Vector_27" d="M250.526 390H231.579L229 384.839V384.547C229.928 372.211 234.783 360.715 242.621 352.291L242.892 352H250.526L260 371.005L250.526 390ZM232.663 387.823H249.441L257.829 371.005L249.44 354.177H243.634C236.381 362.103 231.858 372.806 230.903 384.3L232.663 387.823Z" fill="white"/>
</g>
</g>
</svg>
